# xmcd CD database file generated by OrangeCD 5.1
#
# Track frame offsets:
#	150
#	8587
#	19037
#	30822
#	41017
#	50807
#	60170
#	67630
#	75375
#	87605
#	100097
#	110545
#	123642
#	136087
#	148640
#	158307
#	173682
#	180532
#	190182
#	201440
#	215025
#	229722
#	239190
#	245510
#	255790
#	265500
#	276747
#	283775
#	293737
#	302807
#
# Disc length: 4196 seconds
#
# Revision: 0
# Processed by: cddbd v1.5PL3 Copyright (c) Steve Scherf et al.
# Submitted via: OrangeCD 5.1
#
DISCID=9d10621e
DTITLE=Various Artist - Nashville Banjos - 30 Classics
DYEAR=1900
DGENRE=Country
TTITLE0=Old Joe Clark
TTITLE1=Yellow Rose Of Texas
TTITLE2=On Top Of Old Smokey
TTITLE3=Liberty
TTITLE4=Cielito Lindo
TTITLE5=Blackberry Blossom
TTITLE6=Old Macdonald
TTITLE7=Red River Valley
TTITLE8=Strawberry Roan
TTITLE9=When The Work's All Done This Fall
TTITLE10=Fire On The Mountain
TTITLE11=Don't Let Your Deal Go Down
TTITLE12=Long, Long Ago
TTITLE13=Swanee River
TTITLE14=Dixie
TTITLE15=Red Wing
TTITLE16=John Henry
TTITLE17=Home On The Range
TTITLE18=Twinkle Little Star
TTITLE19=I've Been Working On The Railroad
TTITLE20=Under The Double Eagle
TTITLE21=Cindy
TTITLE22=Cotton Eyed Joe
TTITLE23=Down Yonder
TTITLE24=Columbus
TTITLE25=Stockade Blues
TTITLE26=Handsome Molly
TTITLE27=Battle Hymn Of The Republic
TTITLE28=Casey Jones
TTITLE29=Rubber Dolly
EXTD=
EXTT0=
EXTT1=
EXTT2=
EXTT3=
EXTT4=
EXTT5=
EXTT6=
EXTT7=
EXTT8=
EXTT9=
EXTT10=
EXTT11=
EXTT12=
EXTT13=
EXTT14=
EXTT15=
EXTT16=
EXTT17=
EXTT18=
EXTT19=
EXTT20=
EXTT21=
EXTT22=
EXTT23=
EXTT24=
EXTT25=
EXTT26=
EXTT27=
EXTT28=
EXTT29=
PLAYORDER=
